<svg
  xmlns="http://www.w3.org/2000/svg"
  width="189"
  height="20"
  viewBox="0 0 189 20"
  fill="none"
>
  <path
    d="M4.06913 16.0281L0.558594 16.9308V0.936142L4.06913 1.83885V16.0281Z"
    fill="#2F57C2"
  />
  <path
    d="M21.0333 16.9642L17.5161 17.8669V0L21.0333 0.896019V16.9642Z"
    fill="#78DED4"
  />
  <path
    d="M9.63919 16.5162L6.12866 17.4189V7.99731L9.63919 8.90002V16.5162Z"
    fill="#3A8DDE"
  />
  <path
    d="M11.9329 6.59979L15.4501 5.69708V15.1187L11.9329 14.216V6.59979Z"
    fill="#1ECAD3"
  />
  <path
    d="M35.0889 8.8131C35.4767 8.54563 35.791 8.21798 36.0183 7.84352C36.3125 7.36876 36.4596 6.84051 36.4596 6.26545C36.4596 5.58341 36.2992 4.96154 35.9849 4.41323C35.6706 3.86492 35.2092 3.41022 34.6141 3.05583C34.2597 2.84854 33.8184 2.69474 33.2901 2.60113C32.7686 2.5142 32.0598 2.46739 31.1771 2.46739H27.8672V16.1819H32.8956C34.1661 16.1819 35.2493 15.8007 36.1052 15.0585C36.9678 14.3096 37.4091 13.3668 37.4091 12.2634C37.4091 11.3808 37.1818 10.6252 36.7271 10.0234C36.3393 9.50183 35.7843 9.09394 35.0889 8.80641V8.8131ZM33.8184 7.71648C33.4172 8.0575 32.8354 8.23135 32.0798 8.23135H29.9534V4.31962H31.9662C32.7953 4.31962 33.4172 4.48679 33.8251 4.82112C34.2263 5.14877 34.4202 5.63022 34.4202 6.28552C34.4202 6.94082 34.2263 7.38214 33.8251 7.71648H33.8184ZM29.9468 10.117H32.481C33.4172 10.117 34.1327 10.2976 34.6007 10.652C35.0621 10.9997 35.2828 11.5012 35.2828 12.1832C35.2828 12.8653 35.0554 13.3868 34.5807 13.7345C34.0992 14.0889 33.3704 14.2695 32.4142 14.2695H29.9534V10.1103L29.9468 10.117Z"
    fill="#2F57C2"
  />
  <path
    d="M51.3844 4.41994H49.4051V6.65999H45.6605L43.2132 12.5777C43.1731 12.678 43.0928 12.892 42.9792 13.233C42.9123 13.4336 42.8387 13.6677 42.7518 13.9218C42.6716 13.6476 42.6047 13.4069 42.5378 13.2063C42.3974 12.7583 42.3439 12.6312 42.3239 12.5777L39.9166 6.65999H37.7234L41.6351 16.0147L39.9501 20H41.9695L47.0781 8.37179H49.4118V14.109C49.4118 14.9248 49.6057 15.5199 49.9868 15.881C50.368 16.2354 50.9965 16.4226 51.8591 16.4226H52.9424V14.5303H51.9126C51.7187 14.5303 51.585 14.4901 51.5047 14.4032C51.4245 14.3096 51.3844 14.1491 51.3844 13.9218V8.37848H52.9424V6.66668H51.3844V4.42662V4.41994Z"
    fill="#2F57C2"
  />
  <path
    d="M58.7666 6.42593C57.3156 6.42593 56.1253 6.90069 55.2226 7.83015C54.3199 8.7596 53.8652 9.98996 53.8652 11.4878C53.8652 12.123 53.9722 12.7382 54.1929 13.3133C54.4069 13.895 54.7278 14.4099 55.1357 14.8512C55.5971 15.3527 56.1655 15.7405 56.8074 16.0147C57.4493 16.2822 58.1581 16.4226 58.9003 16.4226C59.7964 16.4226 60.6188 16.2554 61.3343 15.9211C62.0498 15.5867 62.7185 15.0652 63.3203 14.3631L63.4339 14.2293L61.9963 13.0725L61.8893 13.1996C61.4814 13.6677 61.0267 14.0287 60.5319 14.2695C60.0438 14.5102 59.5155 14.6305 58.9471 14.6305C58.0712 14.6305 57.3356 14.3831 56.7673 13.8883C56.239 13.4336 55.9381 12.8586 55.8579 12.1431H63.7415V11.8489C63.7415 10.2374 63.2801 8.92008 62.3708 7.93713C61.4547 6.94749 60.2444 6.43931 58.7599 6.43931L58.7666 6.42593ZM56.7806 8.90671C57.3223 8.44533 57.9843 8.21129 58.7465 8.21129C59.5088 8.21129 60.1441 8.43864 60.6656 8.89333C61.1404 9.30791 61.4413 9.84285 61.5683 10.4848H55.8646C55.9782 9.85623 56.2858 9.32129 56.7806 8.90671Z"
    fill="#2F57C2"
  />
  <path
    d="M74.701 4.21933C73.3703 3.06252 71.4044 2.47409 68.8701 2.47409H65.928V16.1886H68.8701C71.4044 16.1886 73.3703 15.6001 74.701 14.4433C76.0383 13.2798 76.7204 11.5614 76.7204 9.33467C76.7204 7.10799 76.0383 5.38282 74.701 4.21933ZM69.1309 14.2695H68.0209V4.39318H69.1309C70.9497 4.39318 72.3272 4.80776 73.2433 5.63692C74.1526 6.45938 74.6073 7.69643 74.6073 9.33467C74.6073 10.9729 74.146 12.2033 73.2433 13.0257C72.3339 13.8549 70.9497 14.2695 69.1309 14.2695Z"
    fill="#2F57C2"
  />
  <path
    d="M85.687 7.86358C85.3192 7.47575 84.898 7.16148 84.4299 6.92745C83.8214 6.62654 83.146 6.47943 82.4172 6.47943C80.9728 6.47943 79.796 6.93413 78.9133 7.83684C78.0307 8.73955 77.5894 9.93647 77.5894 11.3942C77.5894 12.0695 77.703 12.6981 77.9237 13.2731C78.1444 13.8482 78.4854 14.3765 78.9267 14.8378C79.3881 15.3126 79.9297 15.6804 80.5248 15.9345C81.1199 16.1819 81.7552 16.3089 82.4172 16.3089C83.1594 16.3089 83.8281 16.1685 84.4031 15.8877C84.8378 15.6737 85.2323 15.3795 85.5666 15.005V16.1953H87.5325V6.66666H85.687V7.87027V7.86358ZM84.8043 9.14075C85.366 9.72918 85.6535 10.4915 85.6535 11.4076C85.6535 12.3236 85.366 13.0926 84.8043 13.681C84.2427 14.2628 83.5138 14.557 82.6378 14.557C81.7619 14.557 81.033 14.2628 80.4713 13.681C79.9097 13.0993 79.6221 12.337 79.6221 11.4076C79.6221 10.4781 79.9097 9.72249 80.4713 9.13406C81.033 8.55232 81.7619 8.2581 82.6378 8.2581C83.5138 8.2581 84.2427 8.55232 84.8043 9.14075Z"
    fill="#2F57C2"
  />
  <path
    d="M93.5841 6.47943C93.0492 6.47943 92.541 6.58642 92.073 6.8004C91.7186 6.96088 91.3708 7.18822 91.0365 7.48244V6.65998H89.084V16.1886H91.0365V10.9261C91.0365 10.0234 91.2304 9.34135 91.6049 8.90003C91.9727 8.46539 92.5477 8.24473 93.2966 8.24473C93.9586 8.24473 94.4267 8.43864 94.7276 8.84653C95.0352 9.26111 95.1957 9.93647 95.1957 10.8592V16.1953H97.1616V10.6988C97.1616 9.40153 96.8406 8.37178 96.2053 7.62287C95.5634 6.86727 94.6808 6.48612 93.5775 6.48612L93.5841 6.47943Z"
    fill="#2F57C2"
  />
  <path
    d="M105.045 13.6743C104.798 13.9886 104.504 14.2293 104.156 14.3831C103.808 14.5436 103.401 14.6239 102.939 14.6239C102.09 14.6239 101.415 14.3363 100.886 13.7412C100.358 13.1528 100.091 12.3704 100.091 11.4276C100.091 10.4848 100.365 9.70243 100.9 9.10063C101.435 8.49882 102.103 8.2046 102.946 8.2046C103.374 8.2046 103.762 8.27815 104.096 8.41858C104.424 8.559 104.725 8.77966 104.985 9.08057L105.112 9.22767L106.39 7.75659L106.262 7.64292C105.814 7.23503 105.313 6.92744 104.765 6.72683C104.223 6.52623 103.608 6.42593 102.939 6.42593C102.237 6.42593 101.582 6.54629 100.993 6.77364C100.405 7.00768 99.8766 7.35539 99.442 7.81009C98.9739 8.27816 98.6195 8.82647 98.3855 9.44164C98.1448 10.0501 98.0244 10.7188 98.0244 11.4276C98.0244 12.1364 98.1448 12.8051 98.3855 13.4069C98.6262 14.0154 98.9806 14.5637 99.442 15.0317C99.8766 15.4798 100.405 15.8275 101 16.0615C101.595 16.2955 102.244 16.4159 102.946 16.4159C103.648 16.4159 104.243 16.3089 104.791 16.1016C105.34 15.8943 105.861 15.56 106.356 15.1053L106.483 14.9916L105.186 13.5005L105.059 13.6677L105.045 13.6743Z"
    fill="#2F57C2"
  />
  <path
    d="M117.148 11.8355C117.148 10.224 116.687 8.90671 115.778 7.92376C114.862 6.93412 113.651 6.42593 112.167 6.42593C110.682 6.42593 109.525 6.90069 108.623 7.83015C107.72 8.7596 107.265 9.98996 107.265 11.4878C107.265 12.123 107.372 12.7382 107.593 13.3133C107.807 13.895 108.128 14.4099 108.536 14.8512C108.997 15.3527 109.566 15.7405 110.208 16.0147C110.849 16.2822 111.558 16.4226 112.3 16.4226C113.197 16.4226 114.019 16.2554 114.734 15.9211C115.45 15.5867 116.119 15.0652 116.72 14.3631L116.834 14.2293L115.396 13.0725L115.289 13.1996C114.882 13.6677 114.42 14.0287 113.932 14.2695C113.444 14.5102 112.916 14.6305 112.347 14.6305C111.471 14.6305 110.736 14.3831 110.167 13.8883C109.639 13.4269 109.338 12.8586 109.258 12.1431H117.142V11.8489L117.148 11.8355ZM110.181 8.90671C110.722 8.44533 111.384 8.21129 112.147 8.21129C112.909 8.21129 113.544 8.43864 114.066 8.89333C114.541 9.30791 114.841 9.84285 114.968 10.4848H109.265C109.378 9.85623 109.686 9.32129 110.181 8.90671Z"
    fill="#2F57C2"
  />
  <path d="M127.392 1.75192H126.723V17.3387H127.392V1.75192Z" fill="#2F57C2" />
  <path
    d="M141.08 16.4427C139.997 15.9211 139.101 15.1789 138.385 14.216L140.131 12.7583C140.726 13.4537 141.361 13.9953 142.03 14.3832C142.698 14.771 143.554 14.9582 144.604 14.9582C145.594 14.9582 146.443 14.7643 147.165 14.3698C147.887 13.9753 148.242 13.447 148.242 12.7783C148.242 12.1097 147.894 11.6149 147.205 11.2404C146.517 10.8659 145.534 10.5784 144.25 10.3578C142.431 10.0702 141.06 9.60884 140.131 8.9736C139.201 8.33836 138.733 7.38216 138.733 6.08493C138.733 5.1421 139.007 4.31964 139.549 3.62422C140.091 2.9288 140.819 2.39386 141.715 2.0194C142.612 1.64494 143.588 1.4644 144.638 1.4644C145.875 1.4644 146.998 1.69175 148.008 2.15314C149.017 2.60784 149.84 3.30326 150.482 4.23271L148.737 5.58343C148.242 4.96156 147.667 4.48012 147.011 4.14578C146.356 3.81144 145.58 3.64428 144.678 3.64428C143.661 3.64428 142.799 3.85825 142.083 4.27952C141.368 4.70078 141.013 5.26246 141.013 5.95788C141.013 6.59981 141.328 7.07457 141.95 7.38884C142.571 7.70312 143.608 7.97727 145.045 8.20462C146.617 8.46541 147.927 8.96691 148.977 9.69577C150.034 10.4313 150.555 11.4276 150.555 12.6914C150.555 13.5941 150.275 14.3898 149.72 15.0786C149.158 15.7673 148.422 16.3023 147.506 16.67C146.59 17.0378 145.607 17.225 144.564 17.225C143.314 17.225 142.15 16.9642 141.067 16.4427H141.08Z"
    fill="#2F57C2"
  />
  <path
    d="M154.721 16.4962C153.825 15.9545 153.123 15.2123 152.608 14.2695C152.094 13.3266 151.833 12.2902 151.833 11.1401C151.833 9.98997 152.094 9.00703 152.615 8.09094C153.137 7.17486 153.852 6.4527 154.748 5.92445C155.651 5.39619 156.647 5.12872 157.737 5.12872C158.941 5.12872 159.971 5.37613 160.82 5.87764C161.669 6.37914 162.318 7.07456 162.759 7.95721C163.2 8.84655 163.421 9.86293 163.421 11.0064C163.421 11.2671 163.394 11.675 163.334 12.23L154.073 12.2501C154.22 12.8586 154.481 13.3868 154.869 13.8282C155.256 14.2695 155.698 14.6105 156.206 14.8445C156.714 15.0786 157.216 15.1923 157.71 15.1923C158.466 15.1923 159.148 15.0518 159.75 14.7643C160.352 14.4835 160.84 14.109 161.221 13.6409L162.946 14.7509C162.438 15.6068 161.729 16.2488 160.82 16.67C159.91 17.0913 158.867 17.3053 157.69 17.3053C156.6 17.3053 155.611 17.0311 154.715 16.4895L154.721 16.4962ZM160.084 8.09094C159.449 7.5092 158.68 7.22167 157.764 7.22167C157.182 7.22167 156.627 7.34871 156.099 7.60281C155.571 7.85691 155.116 8.21799 154.748 8.69275C154.38 9.16751 154.153 9.70913 154.08 10.3176H161.274C161.114 9.41492 160.719 8.67269 160.084 8.09094Z"
    fill="#2F57C2"
  />
  <path
    d="M167.192 16.4962C166.296 15.9545 165.594 15.2123 165.079 14.2695C164.564 13.3266 164.303 12.2902 164.303 11.1401C164.303 9.98997 164.564 9.00703 165.086 8.09094C165.607 7.17486 166.323 6.4527 167.219 5.92445C168.122 5.39619 169.118 5.12872 170.208 5.12872C171.411 5.12872 172.441 5.37613 173.29 5.87764C174.14 6.37914 174.788 7.07456 175.23 7.95721C175.671 8.84655 175.892 9.86293 175.892 11.0064C175.892 11.2671 175.865 11.675 175.805 12.23L166.544 12.2501C166.691 12.8586 166.951 13.3868 167.339 13.8282C167.727 14.2695 168.168 14.6105 168.677 14.8445C169.185 15.0786 169.686 15.1923 170.181 15.1923C170.937 15.1923 171.619 15.0518 172.221 14.7643C172.822 14.4835 173.31 14.109 173.692 13.6409L175.417 14.7509C174.909 15.6068 174.2 16.2488 173.29 16.67C172.381 17.0913 171.338 17.3053 170.161 17.3053C169.071 17.3053 168.081 17.0311 167.185 16.4895L167.192 16.4962ZM172.555 8.09094C171.92 7.5092 171.151 7.22167 170.235 7.22167C169.653 7.22167 169.098 7.34871 168.57 7.60281C168.041 7.85691 167.587 8.21799 167.219 8.69275C166.851 9.16751 166.624 9.70913 166.55 10.3176H173.745C173.585 9.41492 173.19 8.67269 172.555 8.09094Z"
    fill="#2F57C2"
  />
  <path
    d="M188.977 1.42428V16.991H186.777V15.1388C186.283 15.7807 185.694 16.2889 184.999 16.6767C184.303 17.0645 183.514 17.2518 182.612 17.2518C181.535 17.2518 180.552 16.9843 179.656 16.4427C178.76 15.9077 178.058 15.1655 177.543 14.2294C177.028 13.2932 176.767 12.2568 176.767 11.12C176.767 9.98329 177.022 9.00703 177.53 8.09094C178.038 7.17486 178.733 6.44601 179.609 5.91107C180.492 5.37613 181.468 5.10198 182.538 5.10198C183.468 5.10198 184.283 5.29589 184.979 5.67703C185.674 6.06487 186.269 6.57306 186.764 7.21498V1.41759H188.964L188.977 1.42428ZM184.959 14.6573C185.547 14.2829 186.009 13.7813 186.343 13.1662C186.677 12.551 186.844 11.8823 186.844 11.1735C186.844 10.4647 186.677 9.81612 186.343 9.18757C186.009 8.5657 185.547 8.0642 184.959 7.68305C184.37 7.3086 183.715 7.11468 182.986 7.11468C182.204 7.11468 181.508 7.30191 180.907 7.68305C180.305 8.0642 179.837 8.55233 179.502 9.16751C179.168 9.776 179.001 10.4246 179.001 11.1067C179.001 11.8355 179.168 12.5109 179.502 13.1461C179.837 13.7813 180.305 14.2829 180.907 14.664C181.508 15.0385 182.204 15.2324 182.986 15.2324C183.715 15.2324 184.37 15.0451 184.959 14.664V14.6573Z"
    fill="#2F57C2"
  />
</svg>
